
<svg xmlns="http://www.w3.org/2000/svg" xmlns:xlink="http://www.w3.org/1999/xlink"  zoomAndPan="magnify" viewBox="0 0 306 60" preserveAspectRatio="xMidYMid meet" version="1.0"><defs><g/><clipPath id="7c0329a7a0"><path d="M 20 40 L 45 40 L 45 56.25 L 20 56.25 Z M 20 40 " clip-rule="nonzero"/></clipPath></defs><rect x="-30.6" width="367.2" fill="#ffffff" y="-6" height="72" fill-opacity="1"/><rect x="-30.6" width="367.2" fill="#ffffff" y="-6" height="72" fill-opacity="1"/><g clip-path="url(#7c0329a7a0)"><path fill="#000000" d="M 21.890625 54.9375 L 43.320312 54.9375 C 43.058594 47.449219 38.351562 41.464844 32.605469 41.464844 C 26.855469 41.464844 22.148438 47.449219 21.890625 54.9375 Z M 43.984375 56.242188 L 21.226562 56.242188 C 20.863281 56.242188 20.574219 55.949219 20.574219 55.589844 C 20.574219 51.5 21.804688 47.644531 24.039062 44.742188 C 26.316406 41.785156 29.355469 40.15625 32.605469 40.15625 C 35.851562 40.15625 38.890625 41.785156 41.167969 44.742188 C 43.402344 47.644531 44.636719 51.5 44.636719 55.589844 C 44.636719 55.949219 44.34375 56.242188 43.984375 56.242188 Z M 43.984375 56.242188 " fill-opacity="1" fill-rule="evenodd"/></g><path fill="#000000" d="M 32.605469 27.484375 C 29.992188 27.484375 27.867188 29.609375 27.867188 32.222656 C 27.867188 34.839844 29.992188 36.964844 32.605469 36.964844 C 35.214844 36.964844 37.34375 34.835938 37.34375 32.222656 C 37.339844 29.609375 35.214844 27.484375 32.605469 27.484375 Z M 32.605469 38.269531 C 29.273438 38.269531 26.5625 35.558594 26.5625 32.222656 C 26.5625 28.890625 29.273438 26.179688 32.605469 26.179688 C 35.9375 26.179688 38.648438 28.890625 38.648438 32.222656 C 38.648438 35.554688 35.9375 38.269531 32.605469 38.269531 Z M 32.605469 38.269531 " fill-opacity="1" fill-rule="evenodd"/><path fill="#000000" d="M 44.253906 51.710938 L 56.886719 51.710938 C 56.632812 46.371094 53.269531 42.128906 49.171875 42.128906 C 46.503906 42.128906 44.007812 43.984375 42.597656 46.988281 C 43.359375 48.4375 43.914062 50.023438 44.253906 51.710938 Z M 57.558594 53.019531 L 43.710938 53.019531 C 43.390625 53.019531 43.121094 52.789062 43.066406 52.476562 C 42.746094 50.613281 42.152344 48.878906 41.296875 47.328125 C 41.199219 47.148438 41.191406 46.9375 41.273438 46.75 C 42.863281 43.09375 45.890625 40.824219 49.171875 40.824219 C 54.15625 40.824219 58.210938 46 58.210938 52.367188 C 58.210938 52.726562 57.917969 53.019531 57.558594 53.019531 Z M 57.558594 53.019531 " fill-opacity="1" fill-rule="evenodd"/><path fill="#000000" d="M 49.171875 31.828125 C 47.34375 31.828125 45.851562 33.316406 45.851562 35.148438 C 45.851562 36.980469 47.339844 38.46875 49.171875 38.46875 C 51.003906 38.46875 52.492188 36.980469 52.492188 35.148438 C 52.492188 33.316406 51.003906 31.828125 49.171875 31.828125 Z M 49.171875 39.773438 C 46.625 39.773438 44.546875 37.699219 44.546875 35.148438 C 44.546875 32.597656 46.621094 30.523438 49.171875 30.523438 C 51.722656 30.523438 53.796875 32.597656 53.796875 35.148438 C 53.796875 37.699219 51.722656 39.773438 49.171875 39.773438 Z M 49.171875 39.773438 " fill-opacity="1" fill-rule="evenodd"/><path fill="#000000" d="M 8.320312 51.710938 L 20.957031 51.710938 C 21.296875 50.023438 21.847656 48.4375 22.609375 46.988281 C 21.203125 43.984375 18.707031 42.128906 16.035156 42.128906 C 11.9375 42.128906 8.574219 46.371094 8.320312 51.710938 Z M 21.496094 53.019531 L 7.652344 53.019531 C 7.292969 53.019531 7 52.726562 7 52.363281 C 7 46 11.054688 40.824219 16.035156 40.824219 C 19.316406 40.824219 22.34375 43.09375 23.9375 46.75 C 24.015625 46.9375 24.007812 47.148438 23.910156 47.324219 C 23.054688 48.878906 22.460938 50.609375 22.140625 52.472656 C 22.085938 52.789062 21.816406 53.019531 21.496094 53.019531 Z M 21.496094 53.019531 " fill-opacity="1" fill-rule="evenodd"/><path fill="#000000" d="M 16.035156 31.828125 C 14.207031 31.828125 12.714844 33.316406 12.714844 35.148438 C 12.714844 36.980469 14.203125 38.46875 16.035156 38.46875 C 17.863281 38.46875 19.355469 36.980469 19.355469 35.148438 C 19.355469 33.316406 17.867188 31.828125 16.035156 31.828125 Z M 16.035156 39.773438 C 13.488281 39.773438 11.410156 37.699219 11.410156 35.148438 C 11.410156 32.597656 13.488281 30.523438 16.035156 30.523438 C 18.585938 30.523438 20.660156 32.597656 20.660156 35.148438 C 20.660156 37.699219 18.585938 39.773438 16.035156 39.773438 Z M 16.035156 39.773438 " fill-opacity="1" fill-rule="evenodd"/><path fill="#000000" d="M 9.875 7.3125 C 8.460938 7.3125 7.304688 8.46875 7.304688 9.886719 L 7.304688 16.820312 C 7.304688 18.234375 8.457031 19.390625 9.875 19.390625 L 44.027344 19.390625 C 44.359375 19.390625 44.640625 19.640625 44.675781 19.972656 L 45.511719 27.890625 L 51.496094 19.660156 C 51.617188 19.488281 51.8125 19.390625 52.023438 19.390625 L 59.125 19.390625 C 60.542969 19.390625 61.695312 18.238281 61.695312 16.820312 L 61.695312 9.886719 C 61.695312 8.46875 60.542969 7.316406 59.125 7.316406 Z M 45.039062 30.300781 C 44.984375 30.300781 44.929688 30.292969 44.871094 30.277344 C 44.609375 30.210938 44.417969 29.984375 44.390625 29.714844 L 43.441406 20.695312 L 9.875 20.695312 C 7.738281 20.695312 6 18.957031 6 16.816406 L 6 9.886719 C 6 7.746094 7.738281 6.007812 9.875 6.007812 L 59.125 6.007812 C 61.261719 6.007812 63 7.746094 63 9.886719 L 63 16.820312 C 63 18.957031 61.261719 20.695312 59.125 20.695312 L 52.355469 20.695312 L 45.566406 30.03125 C 45.445312 30.203125 45.246094 30.300781 45.039062 30.300781 Z M 45.039062 30.300781 " fill-opacity="1" fill-rule="evenodd"/><path fill="#000000" d="M 13.996094 15.269531 C 14.097656 15.269531 14.195312 15.292969 14.285156 15.339844 L 15.632812 16.007812 L 15.414062 14.519531 C 15.386719 14.316406 15.453125 14.113281 15.59375 13.96875 L 16.644531 12.890625 L 15.164062 12.636719 C 14.964844 12.605469 14.789062 12.476562 14.695312 12.296875 L 13.996094 10.964844 L 13.300781 12.296875 C 13.203125 12.476562 13.03125 12.601562 12.828125 12.636719 L 11.347656 12.890625 L 12.398438 13.96875 C 12.539062 14.113281 12.609375 14.316406 12.578125 14.519531 L 12.359375 16.007812 L 13.707031 15.339844 C 13.800781 15.292969 13.898438 15.269531 13.996094 15.269531 Z M 16.460938 17.800781 C 16.363281 17.800781 16.265625 17.777344 16.171875 17.730469 L 13.996094 16.652344 L 11.824219 17.730469 C 11.605469 17.839844 11.347656 17.820312 11.152344 17.675781 C 10.953125 17.53125 10.851562 17.292969 10.886719 17.050781 L 11.242188 14.648438 L 9.542969 12.914062 C 9.375 12.742188 9.3125 12.488281 9.390625 12.253906 C 9.464844 12.023438 9.660156 11.855469 9.902344 11.8125 L 12.292969 11.40625 L 13.421875 9.253906 C 13.53125 9.042969 13.757812 8.90625 13.996094 8.90625 C 14.242188 8.90625 14.464844 9.039062 14.578125 9.253906 L 15.703125 11.40625 L 18.097656 11.8125 C 18.335938 11.855469 18.53125 12.023438 18.609375 12.253906 C 18.683594 12.488281 18.625 12.742188 18.453125 12.914062 L 16.757812 14.648438 L 17.109375 17.050781 C 17.144531 17.292969 17.042969 17.53125 16.847656 17.675781 C 16.730469 17.757812 16.597656 17.800781 16.460938 17.800781 Z M 16.460938 17.800781 " fill-opacity="1" fill-rule="evenodd"/><path fill="#000000" d="M 21.597656 12.890625 L 22.652344 13.96875 C 22.792969 14.113281 22.859375 14.316406 22.828125 14.519531 L 22.613281 16.007812 L 23.960938 15.339844 C 24.140625 15.25 24.355469 15.25 24.539062 15.339844 L 25.886719 16.007812 L 25.667969 14.519531 C 25.636719 14.316406 25.703125 14.113281 25.847656 13.96875 L 26.898438 12.890625 L 25.414062 12.636719 C 25.214844 12.605469 25.039062 12.476562 24.945312 12.296875 L 24.25 10.964844 L 23.550781 12.296875 C 23.457031 12.476562 23.28125 12.601562 23.082031 12.636719 Z M 21.785156 17.800781 C 21.648438 17.800781 21.515625 17.757812 21.402344 17.675781 C 21.203125 17.53125 21.105469 17.292969 21.140625 17.050781 L 21.492188 14.648438 L 19.796875 12.914062 C 19.625 12.742188 19.566406 12.488281 19.640625 12.253906 C 19.714844 12.023438 19.914062 11.855469 20.152344 11.8125 L 22.546875 11.40625 L 23.671875 9.253906 C 23.785156 9.042969 24.007812 8.90625 24.25 8.90625 C 24.492188 8.90625 24.714844 9.039062 24.828125 9.253906 L 25.957031 11.40625 L 28.347656 11.8125 C 28.585938 11.855469 28.785156 12.023438 28.859375 12.253906 C 28.933594 12.488281 28.875 12.742188 28.707031 12.914062 L 27.007812 14.648438 L 27.363281 17.050781 C 27.398438 17.292969 27.296875 17.53125 27.101562 17.675781 C 26.902344 17.816406 26.644531 17.839844 26.425781 17.730469 L 24.253906 16.652344 L 22.078125 17.730469 C 21.984375 17.777344 21.882812 17.800781 21.785156 17.800781 Z M 21.785156 17.800781 " fill-opacity="1" fill-rule="evenodd"/><path fill="#000000" d="M 31.851562 12.890625 L 32.902344 13.96875 C 33.042969 14.113281 33.113281 14.316406 33.082031 14.519531 L 32.863281 16.007812 L 34.210938 15.339844 C 34.394531 15.25 34.609375 15.25 34.789062 15.339844 L 36.136719 16.007812 L 35.917969 14.519531 C 35.890625 14.316406 35.957031 14.113281 36.097656 13.96875 L 37.148438 12.890625 L 35.667969 12.636719 C 35.464844 12.605469 35.292969 12.476562 35.199219 12.296875 L 34.5 10.964844 L 33.800781 12.296875 C 33.707031 12.476562 33.535156 12.601562 33.332031 12.636719 Z M 36.964844 17.800781 C 36.867188 17.800781 36.769531 17.777344 36.675781 17.730469 L 34.503906 16.652344 L 32.328125 17.730469 C 32.109375 17.839844 31.847656 17.820312 31.652344 17.675781 C 31.457031 17.53125 31.355469 17.292969 31.390625 17.050781 L 31.742188 14.648438 L 30.046875 12.914062 C 29.878906 12.742188 29.820312 12.488281 29.894531 12.253906 C 29.96875 12.023438 30.164062 11.855469 30.40625 11.8125 L 32.796875 11.40625 L 33.925781 9.253906 C 34.035156 9.039062 34.261719 8.90625 34.503906 8.90625 C 34.746094 8.90625 34.96875 9.039062 35.082031 9.253906 L 36.207031 11.40625 L 38.601562 11.8125 C 38.839844 11.851562 39.035156 12.023438 39.113281 12.253906 C 39.1875 12.488281 39.128906 12.742188 38.957031 12.914062 L 37.261719 14.648438 L 37.613281 17.050781 C 37.648438 17.292969 37.546875 17.53125 37.351562 17.675781 C 37.234375 17.757812 37.101562 17.800781 36.964844 17.800781 Z M 36.964844 17.800781 " fill-opacity="1" fill-rule="evenodd"/><path fill="#000000" d="M 44.753906 15.269531 C 44.851562 15.269531 44.953125 15.292969 45.042969 15.339844 L 46.390625 16.007812 L 46.171875 14.519531 C 46.140625 14.316406 46.207031 14.113281 46.351562 13.96875 L 47.402344 12.890625 L 45.917969 12.636719 C 45.71875 12.605469 45.542969 12.476562 45.449219 12.296875 L 44.753906 10.964844 L 44.054688 12.296875 C 43.960938 12.476562 43.789062 12.601562 43.585938 12.636719 L 42.101562 12.890625 L 43.15625 13.96875 C 43.296875 14.113281 43.363281 14.316406 43.332031 14.519531 L 43.117188 16.007812 L 44.464844 15.339844 C 44.554688 15.292969 44.652344 15.269531 44.753906 15.269531 Z M 42.289062 17.800781 C 42.152344 17.800781 42.015625 17.757812 41.902344 17.675781 C 41.707031 17.53125 41.605469 17.292969 41.640625 17.050781 L 41.996094 14.648438 L 40.296875 12.914062 C 40.128906 12.742188 40.070312 12.488281 40.144531 12.253906 C 40.21875 12.023438 40.417969 11.855469 40.65625 11.8125 L 43.046875 11.40625 L 44.175781 9.253906 C 44.289062 9.042969 44.511719 8.90625 44.753906 8.90625 C 44.996094 8.90625 45.21875 9.039062 45.332031 9.253906 L 46.457031 11.40625 L 48.851562 11.8125 C 49.089844 11.855469 49.289062 12.023438 49.363281 12.253906 C 49.4375 12.488281 49.378906 12.742188 49.207031 12.914062 L 47.511719 14.648438 L 47.863281 17.050781 C 47.898438 17.292969 47.800781 17.53125 47.601562 17.675781 C 47.40625 17.816406 47.144531 17.839844 46.929688 17.730469 L 44.753906 16.652344 L 42.582031 17.730469 C 42.484375 17.777344 42.386719 17.800781 42.289062 17.800781 Z M 42.289062 17.800781 " fill-opacity="1" fill-rule="evenodd"/><path fill="#000000" d="M 52.355469 12.890625 L 53.40625 13.96875 C 53.546875 14.113281 53.613281 14.316406 53.585938 14.519531 L 53.367188 16.007812 L 54.714844 15.339844 C 54.898438 15.25 55.113281 15.25 55.296875 15.339844 L 56.644531 16.007812 L 56.425781 14.519531 C 56.394531 14.316406 56.460938 14.113281 56.605469 13.96875 L 57.65625 12.890625 L 56.171875 12.636719 C 55.972656 12.605469 55.800781 12.476562 55.707031 12.296875 L 55.007812 10.964844 L 54.308594 12.296875 C 54.214844 12.476562 54.042969 12.601562 53.839844 12.636719 Z M 52.539062 17.800781 C 52.40625 17.800781 52.269531 17.757812 52.15625 17.675781 C 51.960938 17.53125 51.859375 17.292969 51.894531 17.050781 L 52.25 14.648438 L 50.550781 12.914062 C 50.382812 12.742188 50.324219 12.488281 50.398438 12.253906 C 50.472656 12.023438 50.671875 11.855469 50.910156 11.8125 L 53.300781 11.40625 L 54.429688 9.253906 C 54.542969 9.042969 54.765625 8.90625 55.007812 8.90625 C 55.25 8.90625 55.472656 9.039062 55.585938 9.253906 L 56.710938 11.40625 L 59.105469 11.8125 C 59.34375 11.855469 59.539062 12.023438 59.613281 12.253906 C 59.6875 12.488281 59.628906 12.742188 59.460938 12.914062 L 57.761719 14.648438 L 58.117188 17.050781 C 58.152344 17.292969 58.050781 17.53125 57.855469 17.675781 C 57.65625 17.816406 57.398438 17.839844 57.179688 17.730469 L 55.007812 16.652344 L 52.832031 17.730469 C 52.738281 17.777344 52.636719 17.800781 52.539062 17.800781 Z M 52.539062 17.800781 " fill-opacity="1" fill-rule="evenodd"/><g fill="#000000" fill-opacity="1"><g transform="translate(103.458811, 23.855765)"><g><path d="M 11.75 -15.828125 L 11.75 -13.5 C 11.75 -12.476562 11.460938 -11.757812 10.890625 -11.34375 C 10.328125 -10.925781 9.53125 -10.707031 8.5 -10.6875 L 8.453125 -10.640625 C 9.660156 -10.566406 10.5625 -10.195312 11.15625 -9.53125 C 11.757812 -8.863281 12.0625 -8.023438 12.0625 -7.015625 L 12.0625 -4.125 C 12.0625 -2.707031 11.671875 -1.664062 10.890625 -1 C 10.109375 -0.332031 8.960938 0 7.453125 0 L 0.59375 0 L 0.59375 -19.28125 L 7.75 -19.28125 C 9.101562 -19.28125 10.109375 -19 10.765625 -18.4375 C 11.421875 -17.882812 11.75 -17.015625 11.75 -15.828125 Z M 5.96875 -11.765625 C 6.34375 -11.765625 6.625 -11.878906 6.8125 -12.109375 C 7 -12.347656 7.09375 -12.613281 7.09375 -12.90625 L 7.09375 -15.0625 C 7.09375 -15.3125 7.003906 -15.5625 6.828125 -15.8125 C 6.648438 -16.070312 6.34375 -16.203125 5.90625 -16.203125 L 5.40625 -16.203125 L 5.40625 -11.765625 Z M 7.09375 -4.40625 L 7.09375 -7.6875 C 7.09375 -8.070312 6.988281 -8.363281 6.78125 -8.5625 C 6.582031 -8.757812 6.289062 -8.859375 5.90625 -8.859375 L 5.40625 -8.859375 L 5.40625 -3.234375 C 5.476562 -3.222656 5.578125 -3.21875 5.703125 -3.21875 C 6.128906 -3.21875 6.46875 -3.304688 6.71875 -3.484375 C 6.96875 -3.660156 7.09375 -3.96875 7.09375 -4.40625 Z M 7.09375 -4.40625 "/></g></g></g><g fill="#000000" fill-opacity="1"><g transform="translate(115.954351, 23.855765)"><g><path d="M 5.890625 -16.234375 C 7.617188 -16.234375 8.96875 -15.898438 9.9375 -15.234375 C 10.90625 -14.578125 11.390625 -13.382812 11.390625 -11.65625 L 11.390625 0 L 6.75 0 L 6.75 -0.890625 C 6.300781 -0.441406 5.8125 -0.113281 5.28125 0.09375 C 4.75 0.300781 4.226562 0.40625 3.71875 0.40625 C 2.675781 0.40625 1.894531 0.0859375 1.375 -0.546875 C 0.851562 -1.191406 0.59375 -1.972656 0.59375 -2.890625 L 0.59375 -5.3125 C 0.59375 -5.925781 0.65625 -6.40625 0.78125 -6.75 C 0.90625 -7.09375 1.175781 -7.40625 1.59375 -7.6875 C 2.007812 -7.976562 2.664062 -8.285156 3.5625 -8.609375 C 4.457031 -8.953125 5.117188 -9.234375 5.546875 -9.453125 C 5.972656 -9.671875 6.253906 -9.875 6.390625 -10.0625 C 6.523438 -10.25 6.59375 -10.484375 6.59375 -10.765625 L 6.59375 -12.90625 C 6.59375 -13.101562 6.523438 -13.300781 6.390625 -13.5 C 6.253906 -13.695312 6.050781 -13.796875 5.78125 -13.796875 C 5.539062 -13.796875 5.359375 -13.710938 5.234375 -13.546875 C 5.109375 -13.390625 5.046875 -13.175781 5.046875 -12.90625 L 5.046875 -9.71875 L 0.59375 -9.71875 L 0.59375 -11.53125 C 0.59375 -13.257812 1.046875 -14.472656 1.953125 -15.171875 C 2.867188 -15.878906 4.179688 -16.234375 5.890625 -16.234375 Z M 5.046875 -5.1875 L 5.046875 -3.421875 C 5.046875 -3.222656 5.101562 -3.035156 5.21875 -2.859375 C 5.34375 -2.679688 5.519531 -2.59375 5.75 -2.59375 C 6.019531 -2.59375 6.226562 -2.679688 6.375 -2.859375 C 6.519531 -3.035156 6.59375 -3.207031 6.59375 -3.375 L 6.59375 -7.53125 C 6.15625 -7.257812 5.785156 -6.9375 5.484375 -6.5625 C 5.191406 -6.195312 5.046875 -5.738281 5.046875 -5.1875 Z M 5.046875 -5.1875 "/></g></g></g><g fill="#000000" fill-opacity="1"><g transform="translate(127.937116, 23.855765)"><g><path d="M 11.90625 -19.28125 L 11.90625 0 L 6.859375 0 L 7.09375 -0.9375 L 7.046875 -0.9375 C 6.054688 -0.0390625 4.984375 0.40625 3.828125 0.40625 C 2.804688 0.40625 2.007812 0.0976562 1.4375 -0.515625 C 0.875 -1.128906 0.59375 -2 0.59375 -3.125 L 0.59375 -12.53125 C 0.59375 -15 1.742188 -16.234375 4.046875 -16.234375 C 4.660156 -16.234375 5.234375 -16.097656 5.765625 -15.828125 C 6.296875 -15.566406 6.722656 -15.203125 7.046875 -14.734375 L 7.09375 -14.734375 L 7.09375 -19.28125 Z M 5.40625 -11.984375 L 5.40625 -3.828125 C 5.40625 -3.160156 5.664062 -2.828125 6.1875 -2.828125 C 6.507812 -2.828125 6.738281 -2.90625 6.875 -3.0625 C 7.019531 -3.21875 7.09375 -3.46875 7.09375 -3.8125 L 7.09375 -12.015625 C 7.09375 -12.441406 7.019531 -12.738281 6.875 -12.90625 C 6.738281 -13.070312 6.523438 -13.15625 6.234375 -13.15625 C 5.953125 -13.15625 5.742188 -13.066406 5.609375 -12.890625 C 5.472656 -12.722656 5.40625 -12.421875 5.40625 -11.984375 Z M 5.40625 -11.984375 "/></g></g></g><g fill="#000000" fill-opacity="1"><g transform="translate(140.432656, 23.855765)"><g><path d="M 5.40625 -16.84375 L 0.59375 -16.84375 L 0.59375 -19.28125 L 5.40625 -19.28125 Z M 5.40625 0 L 0.59375 0 L 0.59375 -15.828125 L 5.40625 -15.828125 Z M 5.40625 0 "/></g></g></g><g fill="#000000" fill-opacity="1"><g transform="translate(146.424038, 23.855765)"><g><path d="M 8.5 -16.234375 C 9.613281 -16.234375 10.4375 -15.851562 10.96875 -15.09375 C 11.5 -14.332031 11.765625 -13.34375 11.765625 -12.125 L 11.765625 0 L 6.96875 0 L 6.96875 -11.90625 C 6.96875 -12.144531 6.910156 -12.382812 6.796875 -12.625 C 6.691406 -12.863281 6.492188 -12.984375 6.203125 -12.984375 C 5.753906 -12.984375 5.53125 -12.632812 5.53125 -11.9375 L 5.53125 0 L 0.734375 0 L 0.734375 -15.828125 L 5.53125 -15.828125 L 5.53125 -14.609375 L 5.59375 -14.609375 C 5.84375 -15.078125 6.226562 -15.460938 6.75 -15.765625 C 7.269531 -16.078125 7.851562 -16.234375 8.5 -16.234375 Z M 8.5 -16.234375 "/></g></g></g><g fill="#000000" fill-opacity="1"><g transform="translate(158.919578, 23.855765)"><g><path d="M 5.890625 -16.234375 C 7.617188 -16.234375 8.96875 -15.898438 9.9375 -15.234375 C 10.90625 -14.578125 11.390625 -13.382812 11.390625 -11.65625 L 11.390625 0 L 6.75 0 L 6.75 -0.890625 C 6.300781 -0.441406 5.8125 -0.113281 5.28125 0.09375 C 4.75 0.300781 4.226562 0.40625 3.71875 0.40625 C 2.675781 0.40625 1.894531 0.0859375 1.375 -0.546875 C 0.851562 -1.191406 0.59375 -1.972656 0.59375 -2.890625 L 0.59375 -5.3125 C 0.59375 -5.925781 0.65625 -6.40625 0.78125 -6.75 C 0.90625 -7.09375 1.175781 -7.40625 1.59375 -7.6875 C 2.007812 -7.976562 2.664062 -8.285156 3.5625 -8.609375 C 4.457031 -8.953125 5.117188 -9.234375 5.546875 -9.453125 C 5.972656 -9.671875 6.253906 -9.875 6.390625 -10.0625 C 6.523438 -10.25 6.59375 -10.484375 6.59375 -10.765625 L 6.59375 -12.90625 C 6.59375 -13.101562 6.523438 -13.300781 6.390625 -13.5 C 6.253906 -13.695312 6.050781 -13.796875 5.78125 -13.796875 C 5.539062 -13.796875 5.359375 -13.710938 5.234375 -13.546875 C 5.109375 -13.390625 5.046875 -13.175781 5.046875 -12.90625 L 5.046875 -9.71875 L 0.59375 -9.71875 L 0.59375 -11.53125 C 0.59375 -13.257812 1.046875 -14.472656 1.953125 -15.171875 C 2.867188 -15.878906 4.179688 -16.234375 5.890625 -16.234375 Z M 5.046875 -5.1875 L 5.046875 -3.421875 C 5.046875 -3.222656 5.101562 -3.035156 5.21875 -2.859375 C 5.34375 -2.679688 5.519531 -2.59375 5.75 -2.59375 C 6.019531 -2.59375 6.226562 -2.679688 6.375 -2.859375 C 6.519531 -3.035156 6.59375 -3.207031 6.59375 -3.375 L 6.59375 -7.53125 C 6.15625 -7.257812 5.785156 -6.9375 5.484375 -6.5625 C 5.191406 -6.195312 5.046875 -5.738281 5.046875 -5.1875 Z M 5.046875 -5.1875 "/></g></g></g><g fill="#000000" fill-opacity="1"><g transform="translate(170.902343, 23.855765)"><g><path d="M 8.5 -16.234375 C 9.613281 -16.234375 10.4375 -15.851562 10.96875 -15.09375 C 11.5 -14.332031 11.765625 -13.34375 11.765625 -12.125 L 11.765625 0 L 6.96875 0 L 6.96875 -11.90625 C 6.96875 -12.144531 6.910156 -12.382812 6.796875 -12.625 C 6.691406 -12.863281 6.492188 -12.984375 6.203125 -12.984375 C 5.753906 -12.984375 5.53125 -12.632812 5.53125 -11.9375 L 5.53125 0 L 0.734375 0 L 0.734375 -15.828125 L 5.53125 -15.828125 L 5.53125 -14.609375 L 5.59375 -14.609375 C 5.84375 -15.078125 6.226562 -15.460938 6.75 -15.765625 C 7.269531 -16.078125 7.851562 -16.234375 8.5 -16.234375 Z M 8.5 -16.234375 "/></g></g></g><g fill="#000000" fill-opacity="1"><g transform="translate(183.397883, 23.855765)"><g/></g></g><g fill="#000000" fill-opacity="1"><g transform="translate(189.875056, 23.855765)"><g><path d="M 5.8125 -19.6875 C 9.457031 -19.6875 11.28125 -18.304688 11.28125 -15.546875 L 11.28125 -13.640625 L 6.828125 -13.640625 L 6.828125 -15.3125 C 6.828125 -16.175781 6.503906 -16.609375 5.859375 -16.609375 C 5.296875 -16.609375 5.015625 -16.210938 5.015625 -15.421875 L 5.015625 -14.4375 C 5.015625 -14.082031 5.140625 -13.742188 5.390625 -13.421875 C 5.648438 -13.109375 5.921875 -12.851562 6.203125 -12.65625 C 6.492188 -12.457031 6.957031 -12.171875 7.59375 -11.796875 C 8.363281 -11.328125 9.019531 -10.867188 9.5625 -10.421875 C 10.113281 -9.972656 10.59375 -9.390625 11 -8.671875 C 11.40625 -7.960938 11.609375 -7.125 11.609375 -6.15625 L 11.609375 -4.421875 C 11.609375 -2.609375 11.085938 -1.347656 10.046875 -0.640625 C 9.015625 0.0546875 7.601562 0.40625 5.8125 0.40625 C 3.820312 0.40625 2.421875 0.0078125 1.609375 -0.78125 C 0.804688 -1.570312 0.40625 -2.796875 0.40625 -4.453125 L 0.40625 -7.015625 L 5.046875 -7.015625 L 5.046875 -3.828125 C 5.046875 -3.054688 5.328125 -2.671875 5.890625 -2.671875 C 6.191406 -2.671875 6.414062 -2.789062 6.5625 -3.03125 C 6.71875 -3.28125 6.796875 -3.691406 6.796875 -4.265625 L 6.796875 -5.296875 C 6.796875 -5.773438 6.664062 -6.203125 6.40625 -6.578125 C 6.144531 -6.960938 5.859375 -7.269531 5.546875 -7.5 C 5.234375 -7.738281 4.789062 -8.035156 4.21875 -8.390625 C 3.4375 -8.859375 2.789062 -9.300781 2.28125 -9.71875 C 1.769531 -10.132812 1.320312 -10.675781 0.9375 -11.34375 C 0.5625 -12.007812 0.375 -12.800781 0.375 -13.71875 L 0.375 -15.015625 C 0.375 -18.128906 2.1875 -19.6875 5.8125 -19.6875 Z M 5.8125 -19.6875 "/></g></g></g><g fill="#000000" fill-opacity="1"><g transform="translate(201.857821, 23.855765)"><g><path d="M 11.359375 -14.421875 C 11.890625 -15.015625 12.398438 -15.460938 12.890625 -15.765625 C 13.390625 -16.078125 13.9375 -16.234375 14.53125 -16.234375 C 15.664062 -16.234375 16.492188 -15.851562 17.015625 -15.09375 C 17.535156 -14.332031 17.796875 -13.34375 17.796875 -12.125 L 17.796875 0 L 12.984375 0 L 12.984375 -11.90625 C 12.984375 -12.15625 12.925781 -12.394531 12.8125 -12.625 C 12.707031 -12.863281 12.515625 -12.984375 12.234375 -12.984375 C 11.796875 -12.984375 11.578125 -12.632812 11.578125 -11.9375 L 11.578125 0 L 6.9375 0 L 6.9375 -11.90625 C 6.9375 -12.25 6.867188 -12.515625 6.734375 -12.703125 C 6.597656 -12.890625 6.421875 -12.984375 6.203125 -12.984375 C 5.753906 -12.984375 5.53125 -12.632812 5.53125 -11.9375 L 5.53125 0 L 0.734375 0 L 0.734375 -15.828125 L 5.53125 -15.828125 L 5.53125 -14.609375 L 5.59375 -14.609375 C 5.738281 -14.984375 6.085938 -15.347656 6.640625 -15.703125 C 7.203125 -16.054688 7.820312 -16.234375 8.5 -16.234375 C 9.132812 -16.234375 9.691406 -16.066406 10.171875 -15.734375 C 10.660156 -15.410156 11.054688 -14.972656 11.359375 -14.421875 Z M 11.359375 -14.421875 "/></g></g></g><g fill="#000000" fill-opacity="1"><g transform="translate(220.371728, 23.855765)"><g><path d="M 5.890625 -16.234375 C 7.617188 -16.234375 8.96875 -15.898438 9.9375 -15.234375 C 10.90625 -14.578125 11.390625 -13.382812 11.390625 -11.65625 L 11.390625 0 L 6.75 0 L 6.75 -0.890625 C 6.300781 -0.441406 5.8125 -0.113281 5.28125 0.09375 C 4.75 0.300781 4.226562 0.40625 3.71875 0.40625 C 2.675781 0.40625 1.894531 0.0859375 1.375 -0.546875 C 0.851562 -1.191406 0.59375 -1.972656 0.59375 -2.890625 L 0.59375 -5.3125 C 0.59375 -5.925781 0.65625 -6.40625 0.78125 -6.75 C 0.90625 -7.09375 1.175781 -7.40625 1.59375 -7.6875 C 2.007812 -7.976562 2.664062 -8.285156 3.5625 -8.609375 C 4.457031 -8.953125 5.117188 -9.234375 5.546875 -9.453125 C 5.972656 -9.671875 6.253906 -9.875 6.390625 -10.0625 C 6.523438 -10.25 6.59375 -10.484375 6.59375 -10.765625 L 6.59375 -12.90625 C 6.59375 -13.101562 6.523438 -13.300781 6.390625 -13.5 C 6.253906 -13.695312 6.050781 -13.796875 5.78125 -13.796875 C 5.539062 -13.796875 5.359375 -13.710938 5.234375 -13.546875 C 5.109375 -13.390625 5.046875 -13.175781 5.046875 -12.90625 L 5.046875 -9.71875 L 0.59375 -9.71875 L 0.59375 -11.53125 C 0.59375 -13.257812 1.046875 -14.472656 1.953125 -15.171875 C 2.867188 -15.878906 4.179688 -16.234375 5.890625 -16.234375 Z M 5.046875 -5.1875 L 5.046875 -3.421875 C 5.046875 -3.222656 5.101562 -3.035156 5.21875 -2.859375 C 5.34375 -2.679688 5.519531 -2.59375 5.75 -2.59375 C 6.019531 -2.59375 6.226562 -2.679688 6.375 -2.859375 C 6.519531 -3.035156 6.59375 -3.207031 6.59375 -3.375 L 6.59375 -7.53125 C 6.15625 -7.257812 5.785156 -6.9375 5.484375 -6.5625 C 5.191406 -6.195312 5.046875 -5.738281 5.046875 -5.1875 Z M 5.046875 -5.1875 "/></g></g></g><g fill="#000000" fill-opacity="1"><g transform="translate(232.354493, 23.855765)"><g><path d="M 8.390625 -16.234375 L 8.390625 -10.46875 C 8.035156 -10.507812 7.769531 -10.53125 7.59375 -10.53125 C 6.90625 -10.53125 6.390625 -10.328125 6.046875 -9.921875 C 5.703125 -9.515625 5.53125 -9.039062 5.53125 -8.5 L 5.53125 0 L 0.734375 0 L 0.734375 -15.828125 L 5.375 -15.828125 L 5.375 -13.796875 L 5.421875 -13.796875 C 5.566406 -14.390625 5.9375 -14.925781 6.53125 -15.40625 C 7.125 -15.894531 7.742188 -16.171875 8.390625 -16.234375 Z M 8.390625 -16.234375 "/></g></g></g><g fill="#000000" fill-opacity="1"><g transform="translate(240.855782, 23.855765)"><g><path d="M 6.109375 -18.25 L 6.109375 -15.828125 L 7.375 -15.828125 L 7.375 -13.234375 L 6.109375 -13.234375 L 6.109375 -3.1875 C 6.109375 -2.789062 6.285156 -2.59375 6.640625 -2.59375 L 7.375 -2.59375 L 7.375 0 L 4.59375 0 C 3.613281 0 2.875 -0.132812 2.375 -0.40625 C 1.875 -0.675781 1.539062 -1.054688 1.375 -1.546875 C 1.21875 -2.046875 1.140625 -2.707031 1.140625 -3.53125 L 1.140625 -13.234375 L 0.140625 -13.234375 L 0.140625 -15.828125 L 1.140625 -15.828125 L 1.140625 -18.25 Z M 6.109375 -18.25 "/></g></g></g><g fill="#000000" fill-opacity="1"><g transform="translate(248.361153, 23.855765)"><g/></g></g><g fill="#ff3131" fill-opacity="1"><g transform="translate(139.939982, 51.300038)"><g><path d="M 11.71875 -15.46875 L 11.71875 -13.53125 C 11.71875 -12.46875 11.472656 -11.671875 10.984375 -11.140625 C 10.503906 -10.609375 9.773438 -10.304688 8.796875 -10.234375 L 8.796875 -10.171875 C 9.859375 -10.109375 10.640625 -9.804688 11.140625 -9.265625 C 11.648438 -8.722656 11.90625 -7.921875 11.90625 -6.859375 L 11.90625 0 L 7.265625 0 L 7.265625 -7.390625 C 7.265625 -8.453125 6.832031 -8.984375 5.96875 -8.984375 C 5.769531 -8.984375 5.582031 -8.957031 5.40625 -8.90625 L 5.40625 0 L 0.59375 0 L 0.59375 -19.28125 L 6.40625 -19.28125 C 7.550781 -19.28125 8.492188 -19.191406 9.234375 -19.015625 C 9.972656 -18.847656 10.570312 -18.488281 11.03125 -17.9375 C 11.488281 -17.394531 11.71875 -16.570312 11.71875 -15.46875 Z M 5.75 -11.90625 C 6.320312 -11.90625 6.71875 -12.035156 6.9375 -12.296875 C 7.15625 -12.554688 7.265625 -12.859375 7.265625 -13.203125 L 7.265625 -14.90625 C 7.265625 -15.226562 7.15625 -15.523438 6.9375 -15.796875 C 6.71875 -16.066406 6.332031 -16.203125 5.78125 -16.203125 L 5.40625 -16.203125 L 5.40625 -11.90625 Z M 5.75 -11.90625 "/></g></g></g><g fill="#ff3131" fill-opacity="1"><g transform="translate(152.435522, 51.300038)"><g><path d="M 6.265625 -16.234375 C 7.253906 -16.234375 8.148438 -16.03125 8.953125 -15.625 C 9.765625 -15.21875 10.410156 -14.625 10.890625 -13.84375 C 11.367188 -13.070312 11.609375 -12.15625 11.609375 -11.09375 L 11.609375 -7.671875 L 5.40625 -7.671875 L 5.40625 -3.453125 C 5.40625 -2.828125 5.644531 -2.515625 6.125 -2.515625 C 6.6875 -2.515625 6.96875 -2.863281 6.96875 -3.5625 L 6.96875 -6.453125 L 11.609375 -6.453125 L 11.609375 -4.71875 C 11.609375 -3.175781 11.15625 -1.9375 10.25 -1 C 9.34375 -0.0625 8.015625 0.40625 6.265625 0.40625 C 4.429688 0.40625 3.023438 -0.0546875 2.046875 -0.984375 C 1.078125 -1.910156 0.59375 -3.15625 0.59375 -4.71875 L 0.59375 -11.09375 C 0.59375 -12.675781 1.085938 -13.925781 2.078125 -14.84375 C 3.066406 -15.769531 4.460938 -16.234375 6.265625 -16.234375 Z M 5.40625 -12.359375 L 5.40625 -10.265625 L 6.96875 -10.265625 L 6.96875 -12.265625 C 6.96875 -12.960938 6.6875 -13.3125 6.125 -13.3125 C 5.644531 -13.3125 5.40625 -12.992188 5.40625 -12.359375 Z M 5.40625 -12.359375 "/></g></g></g><g fill="#ff3131" fill-opacity="1"><g transform="translate(164.418287, 51.300038)"><g><path d="M 5.75 -3.234375 L 5.8125 -3.234375 L 6.71875 -15.828125 L 10.9375 -15.828125 L 8.6875 0 L 2.40625 0 L 0.046875 -15.828125 L 4.515625 -15.828125 Z M 5.75 -3.234375 "/></g></g></g><g fill="#ff3131" fill-opacity="1"><g transform="translate(175.402486, 51.300038)"><g><path d="M 5.40625 -16.84375 L 0.59375 -16.84375 L 0.59375 -19.28125 L 5.40625 -19.28125 Z M 5.40625 0 L 0.59375 0 L 0.59375 -15.828125 L 5.40625 -15.828125 Z M 5.40625 0 "/></g></g></g><g fill="#ff3131" fill-opacity="1"><g transform="translate(181.393868, 51.300038)"><g><path d="M 6.265625 -16.234375 C 7.253906 -16.234375 8.148438 -16.03125 8.953125 -15.625 C 9.765625 -15.21875 10.410156 -14.625 10.890625 -13.84375 C 11.367188 -13.070312 11.609375 -12.15625 11.609375 -11.09375 L 11.609375 -7.671875 L 5.40625 -7.671875 L 5.40625 -3.453125 C 5.40625 -2.828125 5.644531 -2.515625 6.125 -2.515625 C 6.6875 -2.515625 6.96875 -2.863281 6.96875 -3.5625 L 6.96875 -6.453125 L 11.609375 -6.453125 L 11.609375 -4.71875 C 11.609375 -3.175781 11.15625 -1.9375 10.25 -1 C 9.34375 -0.0625 8.015625 0.40625 6.265625 0.40625 C 4.429688 0.40625 3.023438 -0.0546875 2.046875 -0.984375 C 1.078125 -1.910156 0.59375 -3.15625 0.59375 -4.71875 L 0.59375 -11.09375 C 0.59375 -12.675781 1.085938 -13.925781 2.078125 -14.84375 C 3.066406 -15.769531 4.460938 -16.234375 6.265625 -16.234375 Z M 5.40625 -12.359375 L 5.40625 -10.265625 L 6.96875 -10.265625 L 6.96875 -12.265625 C 6.96875 -12.960938 6.6875 -13.3125 6.125 -13.3125 C 5.644531 -13.3125 5.40625 -12.992188 5.40625 -12.359375 Z M 5.40625 -12.359375 "/></g></g></g><g fill="#ff3131" fill-opacity="1"><g transform="translate(193.376633, 51.300038)"><g><path d="M 5.40625 -4.375 L 5.453125 -4.375 L 6.671875 -15.828125 L 10.796875 -15.828125 L 12.0625 -4.375 L 12.125 -4.375 L 12.859375 -15.828125 L 16.953125 -15.828125 L 15.125 0 L 9.75 0 L 8.796875 -8.5625 L 8.75 -8.5625 L 7.59375 0 L 2.109375 0 L 0.046875 -15.828125 L 4.515625 -15.828125 Z M 5.40625 -4.375 "/></g></g></g><g fill="#ff3131" fill-opacity="1"><g transform="translate(210.3792, 51.300038)"><g><path d="M 6.265625 -16.234375 C 7.253906 -16.234375 8.148438 -16.03125 8.953125 -15.625 C 9.765625 -15.21875 10.410156 -14.625 10.890625 -13.84375 C 11.367188 -13.070312 11.609375 -12.15625 11.609375 -11.09375 L 11.609375 -7.671875 L 5.40625 -7.671875 L 5.40625 -3.453125 C 5.40625 -2.828125 5.644531 -2.515625 6.125 -2.515625 C 6.6875 -2.515625 6.96875 -2.863281 6.96875 -3.5625 L 6.96875 -6.453125 L 11.609375 -6.453125 L 11.609375 -4.71875 C 11.609375 -3.175781 11.15625 -1.9375 10.25 -1 C 9.34375 -0.0625 8.015625 0.40625 6.265625 0.40625 C 4.429688 0.40625 3.023438 -0.0546875 2.046875 -0.984375 C 1.078125 -1.910156 0.59375 -3.15625 0.59375 -4.71875 L 0.59375 -11.09375 C 0.59375 -12.675781 1.085938 -13.925781 2.078125 -14.84375 C 3.066406 -15.769531 4.460938 -16.234375 6.265625 -16.234375 Z M 5.40625 -12.359375 L 5.40625 -10.265625 L 6.96875 -10.265625 L 6.96875 -12.265625 C 6.96875 -12.960938 6.6875 -13.3125 6.125 -13.3125 C 5.644531 -13.3125 5.40625 -12.992188 5.40625 -12.359375 Z M 5.40625 -12.359375 "/></g></g></g><g fill="#ff3131" fill-opacity="1"><g transform="translate(222.361964, 51.300038)"><g><path d="M 8.390625 -16.234375 L 8.390625 -10.46875 C 8.035156 -10.507812 7.769531 -10.53125 7.59375 -10.53125 C 6.90625 -10.53125 6.390625 -10.328125 6.046875 -9.921875 C 5.703125 -9.515625 5.53125 -9.039062 5.53125 -8.5 L 5.53125 0 L 0.734375 0 L 0.734375 -15.828125 L 5.375 -15.828125 L 5.375 -13.796875 L 5.421875 -13.796875 C 5.566406 -14.390625 5.9375 -14.925781 6.53125 -15.40625 C 7.125 -15.894531 7.742188 -16.171875 8.390625 -16.234375 Z M 8.390625 -16.234375 "/></g></g></g></svg>
